# xmcd
#
# Track frame offsets:
# 150
# 12407
# 26680
# 42745
# 57312
# 76185
# 91797
# 104240
# 125960
# 140762
# 153997
# 163945
# 178820
#
# Disc length: 2787 seconds
#
# Revision: 0
# Processed by: cddbd v1.4PL0 Copyright (c) Steve Scherf et al.
# Submitted via: MacMP3 Pro 5.0 (http://mp3.act2.co.jp/)
#
DISCID=bc0ae10d
DTITLE=Eddie Shaw - Home Alone
DYEAR=1900
DGENRE=
TTITLE0=Walkin' In Moonlight
TTITLE1=Got To Go Now
TTITLE2=Lickskillet, Mississippi
TTITLE3=Blues In Paris
TTITLE4=Miss Tangy
TTITLE5=Hey Mule Boy
TTITLE6=Rock This House 
TTITLE7=Home Alione
TTITLE8=Motel Six
TTITLE9=Midnight Blues
TTITLE10=Skinny Minnie
TTITLE11=A Man's Gotta Do
TTITLE12=One Room Country Shack
EXTD=
EXTT0=
EXTT1=
EXTT2=
EXTT3=
EXTT4=
EXTT5=
EXTT6=
EXTT7=
EXTT8=
EXTT9=
EXTT10=
EXTT11=
EXTT12=
PLAYORDER=
